<svg xmlns="http://www.w3.org/2000/svg" xmlns:xlink="http://www.w3.org/1999/xlink" contentStyleType="text/css" height="433px" preserveAspectRatio="none" style="width:500px;height:433px;background:#FFFFFF;" version="1.1" viewBox="0 0 500 433" width="500px" zoomAndPan="magnify"><title>&#20449;  &#24687;  &#27969;  &#21160;  &#22270;</title><defs/><g><text fill="#000000" font-family="sans-serif" font-size="14" font-weight="bold" lengthAdjust="spacing" textLength="80.999" x="202.5005" y="22.9951">&#20449;  &#24687;  &#27969;  &#21160;  &#22270;</text><!--cluster ?  ?  ?--><g id="cluster_&#25968;  &#25454;  &#24211;"><path d="M131.5,194.2969 L177.2002,194.2969 A3.75,3.75 0 0 1 179.7002,196.7969 L186.7002,216.5938 L254.5,216.5938 A2.5,2.5 0 0 1 257,219.0938 L257,423.7969 A2.5,2.5 0 0 1 254.5,426.2969 L131.5,426.2969 A2.5,2.5 0 0 1 129,423.7969 L129,196.7969 A2.5,2.5 0 0 1 131.5,194.2969 " fill="none" style="stroke:#000000;stroke-width:1.5;"/><line style="stroke:#000000;stroke-width:1.5;" x1="129" x2="186.7002" y1="216.5938" y2="216.5938"/><text fill="#000000" font-family="sans-serif" font-size="14" font-weight="bold" lengthAdjust="spacing" textLength="44.7002" x="133" y="209.292">&#25968;  &#25454;  &#24211;</text></g><!--cluster ?  ?--><g id="cluster_&#32593;  &#31449;"><path d="M293.5,58.2969 L321.0508,58.2969 A3.75,3.75 0 0 1 323.5508,60.7969 L330.5508,80.5938 L490.5,80.5938 A2.5,2.5 0 0 1 493,83.0938 L493,303.7969 A2.5,2.5 0 0 1 490.5,306.2969 L293.5,306.2969 A2.5,2.5 0 0 1 291,303.7969 L291,60.7969 A2.5,2.5 0 0 1 293.5,58.2969 " fill="none" style="stroke:#000000;stroke-width:1.5;"/><line style="stroke:#000000;stroke-width:1.5;" x1="291" x2="330.5508" y1="80.5938" y2="80.5938"/><text fill="#000000" font-family="sans-serif" font-size="14" font-weight="bold" lengthAdjust="spacing" textLength="26.5508" x="295" y="73.292">&#32593;  &#31449;</text></g><!--cluster ?  ?  ?--><g id="cluster_&#20449;  &#24687;  &#28304;"><path d="M8.5,43.2969 L54.2002,43.2969 A3.75,3.75 0 0 1 56.7002,45.7969 L63.7002,65.5938 L264.5,65.5938 A2.5,2.5 0 0 1 267,68.0938 L267,167.7969 A2.5,2.5 0 0 1 264.5,170.2969 L8.5,170.2969 A2.5,2.5 0 0 1 6,167.7969 L6,45.7969 A2.5,2.5 0 0 1 8.5,43.2969 " fill="none" style="stroke:#000000;stroke-width:1.5;"/><line style="stroke:#000000;stroke-width:1.5;" x1="6" x2="63.7002" y1="65.5938" y2="65.5938"/><text fill="#000000" font-family="sans-serif" font-size="14" font-weight="bold" lengthAdjust="spacing" textLength="44.7002" x="10" y="58.292">&#20449;  &#24687;  &#28304;</text></g><!--entity dbrepo--><g id="elem_dbrepo"><path d="M145.5,375.2969 C145.5,365.2969 192.8721,365.2969 192.8721,365.2969 C192.8721,365.2969 240.2441,365.2969 240.2441,375.2969 L240.2441,400.5938 C240.2441,410.5938 192.8721,410.5938 192.8721,410.5938 C192.8721,410.5938 145.5,410.5938 145.5,400.5938 L145.5,375.2969 " fill="#F1F1F1" style="stroke:#181818;stroke-width:0.5;"/><path d="M145.5,375.2969 C145.5,385.2969 192.8721,385.2969 192.8721,385.2969 C192.8721,385.2969 240.2441,385.2969 240.2441,375.2969 " fill="none" style="stroke:#181818;stroke-width:0.5;"/><text fill="#000000" font-family="sans-serif" font-size="14" lengthAdjust="spacing" textLength="74.7441" x="155.5" y="402.292">act-db &#20179;  &#24211;</text></g><!--entity dbadmin--><g id="elem_dbadmin"><ellipse cx="192.9551" cy="237.7969" fill="#F1F1F1" rx="8" ry="8" style="stroke:#181818;stroke-width:0.5;"/><path d="M192.9551,245.7969 L192.9551,272.7969 M179.9551,253.7969 L205.9551,253.7969 M192.9551,272.7969 L179.9551,287.7969 M192.9551,272.7969 L205.9551,287.7969 " fill="none" style="stroke:#181818;stroke-width:0.5;"/><text fill="#000000" font-family="sans-serif" font-size="14" lengthAdjust="spacing" textLength="94.9102" x="145.5" y="302.292">&#25968;  &#25454;  &#24211;  &#32500;  &#25252;  &#32773;</text></g><!--entity wbjs--><g id="elem_wbjs"><rect fill="#F1F1F1" height="46.2969" rx="2.5" ry="2.5" style="stroke:#181818;stroke-width:0.5;" width="152.2119" x="311" y="244.2969"/><rect fill="#F1F1F1" height="10" style="stroke:#181818;stroke-width:0.5;" width="15" x="443.2119" y="249.2969"/><rect fill="#F1F1F1" height="2" style="stroke:#181818;stroke-width:0.5;" width="4" x="441.2119" y="251.2969"/><rect fill="#F1F1F1" height="2" style="stroke:#181818;stroke-width:0.5;" width="4" x="441.2119" y="255.2969"/><text fill="#000000" font-family="sans-serif" font-size="14" lengthAdjust="spacing" textLength="112.2119" x="326" y="277.292">&#25968;  &#25454;  &#24211;  &#32534;  &#31243;  &#25509;  &#21475;</text></g><!--entity wbtody--><g id="elem_wbtody"><rect fill="#F1F1F1" height="46.2969" rx="2.5" ry="2.5" style="stroke:#181818;stroke-width:0.5;" width="169.5137" x="307" y="93.2969"/><rect fill="#F1F1F1" height="10" style="stroke:#181818;stroke-width:0.5;" width="15" x="456.5137" y="98.2969"/><rect fill="#F1F1F1" height="2" style="stroke:#181818;stroke-width:0.5;" width="4" x="454.5137" y="100.2969"/><rect fill="#F1F1F1" height="2" style="stroke:#181818;stroke-width:0.5;" width="4" x="454.5137" y="104.2969"/><text fill="#000000" font-family="sans-serif" font-size="14" lengthAdjust="spacing" textLength="129.5137" x="322" y="126.292">&#24403;  &#26085;  &#27963;  &#21160;  &#26174;  &#31034;  &#21151;  &#33021;</text></g><!--entity fmorg--><g id="elem_fmorg"><ellipse cx="60.8042" cy="86.7969" fill="#F1F1F1" rx="8" ry="8" style="stroke:#181818;stroke-width:0.5;"/><path d="M60.8042,94.7969 L60.8042,121.7969 M47.8042,102.7969 L73.8042,102.7969 M60.8042,121.7969 L47.8042,136.7969 M60.8042,121.7969 L73.8042,136.7969 " fill="none" style="stroke:#181818;stroke-width:0.5;"/><text fill="#000000" font-family="sans-serif" font-size="14" lengthAdjust="spacing" textLength="77.6084" x="22" y="151.292">&#27963;  &#21160;  &#32452;  &#32455;  &#32773;</text></g><!--entity fminfo--><g id="elem_fminfo"><rect fill="#F1F1F1" height="32.2969" rx="2.5" ry="2.5" style="stroke:#181818;stroke-width:0.5;" width="110.9102" x="139.5" y="102.2969"/><rect fill="#F1F1F1" height="32.2969" rx="2.5" ry="2.5" style="stroke:#181818;stroke-width:0.5;" width="110.9102" x="135.5" y="98.2969"/><text fill="#000000" font-family="sans-serif" font-size="14" lengthAdjust="spacing" textLength="94.9102" x="143.5" y="119.292">&#27963;  &#21160;  &#21457;  &#24067;  &#20449;  &#24687;</text></g><!--link dbadmin to dbrepo--><g id="link_dbadmin_dbrepo"><path d="M193,305.4669 C193,325.1469 193,342.6269 193,359.2869 " fill="none" id="dbadmin-to-dbrepo" style="stroke:#181818;stroke-width:1.0;"/><polygon fill="#181818" points="193,365.2869,197,356.2869,193,360.2869,189,356.2869,193,365.2869" style="stroke:#181818;stroke-width:1.0;"/></g><!--reverse link wbjs to dbrepo--><g id="link_wbjs_dbrepo"><path d="M345.8398,293.4347 C310.8898,314.7847 263.29,343.8569 228.51,365.1069 " fill="none" id="wbjs-backto-dbrepo" style="stroke:#181818;stroke-width:1.0;"/><polygon fill="#181818" points="350.96,290.3069,341.1944,291.5851,346.6931,292.9134,345.3649,298.4121,350.96,290.3069" style="stroke:#181818;stroke-width:1.0;"/></g><!--link fmorg to dbrepo--><g id="link_fmorg_dbrepo"><path d="M68.88,154.3969 C78.65,195.4769 97.81,262.6969 128,314.2969 C139.1,333.2669 151.4271,347.4446 165.0671,360.9546 " fill="none" id="fmorg-to-dbrepo" style="stroke:#181818;stroke-width:1.0;"/><polygon fill="#181818" points="169.33,365.1769,165.7505,356.0015,165.7776,361.6583,160.1208,361.6854,169.33,365.1769" style="stroke:#181818;stroke-width:1.0;"/></g><!--reverse link wbtody to wbjs--><g id="link_wbtody_wbjs"><path d="M391.0493,145.6035 C390.1093,173.6935 388.7,215.6769 387.75,243.8369 " fill="none" id="wbtody-backto-wbjs" style="stroke:#181818;stroke-width:1.0;"/><polygon fill="#181818" points="391.25,139.6069,386.9512,148.4681,391.0828,144.6041,394.9468,148.7356,391.25,139.6069" style="stroke:#181818;stroke-width:1.0;"/></g><!--link fminfo to dbadmin--><g id="link_fminfo_dbadmin"><path d="M193,134.3869 C193,157.3969 193,192.9469 193,223.2769 " fill="none" id="fminfo-to-dbadmin" style="stroke:#181818;stroke-width:1.0;"/><polygon fill="#181818" points="193,229.2769,197,220.2769,193,224.2769,189,220.2769,193,229.2769" style="stroke:#181818;stroke-width:1.0;"/></g><!--SRC=[PL3RIiD047rklcBeU_v0_9TDTbkYoMv85aH4iDHIg6YLuWqVHAnG4DI72fAO-ZFDnizmTjsqgRuCpCmvPyuP6SYGmVBh0K3rNh6yzm3AqGpBtSA9YRzBkWpQwl8DTwSlECucRJXmMfH8uf4KTyINBlLWcK_ibgH0lOJ5mcdXJYH_w01LFiTsD0NuFXfOFA5Hm9t3zScgk43aywsvveie5fnn-L_hymhBx0HdPqyu6pyQmJrl9zsWbGM2rJL2r3ot4TND0hdJJBVtQAPVMAuKTB_ffV6VxDmOgeEjjAhyM9VXEbCd4abNUmX3vij0yBI9BySOh_pem-hvbXJmZi3RzYFWkjlrDtKcs7BTkZS7DW7Qk86O_BzY5c7aVW00]--></g></svg>